<?xml version="1.0" standalone="no"?>
<!DOCTYPE svg PUBLIC "-//W3C//DTD SVG 20010904//EN"
 "http://www.w3.org/TR/2001/REC-SVG-20010904/DTD/svg10.dtd">
<svg version="1.0" xmlns="http://www.w3.org/2000/svg"
 width="70.000000pt" height="70.000000pt" viewBox="0 0 70.000000 70.000000"
 preserveAspectRatio="xMidYMid meet">
<metadata>
Created by potrace 1.14, written by Peter Selinger 2001-2017
</metadata>
<g transform="translate(0.000000,70.000000) scale(0.100000,-0.100000)"
fill="#000000" stroke="none">
<path d="M247 626 c-72 -27 -140 -93 -172 -169 -8 -21 -15 -66 -15 -105 0
-199 182 -334 375 -278 46 14 70 29 116 75 62 63 89 125 89 207 0 101 -72 214
-165 259 -51 25 -175 31 -228 11z m221 -32 c137 -68 190 -225 121 -363 -81
-161 -286 -201 -422 -81 -64 57 -90 122 -85 220 3 68 7 83 37 127 33 49 106
107 146 116 11 3 49 5 86 6 52 1 76 -4 117 -25z"/>
<path d="M282 478 c-28 -28 -2 -93 34 -86 27 5 27 66 -2 84 -15 11 -23 11 -32
2z"/>
<path d="M377 472 c-40 -44 0 -111 41 -70 23 23 9 88 -18 88 -4 0 -14 -8 -23
-18z"/>
<path d="M442 394 c-33 -23 -27 -69 8 -69 32 0 52 47 29 70 -13 13 -17 13 -37
-1z"/>
<path d="M215 381 c-7 -24 3 -49 26 -62 24 -12 39 -4 39 22 0 50 -51 82 -65
40z"/>
<path d="M323 340 c-38 -15 -69 -99 -43 -115 6 -4 26 -1 45 5 27 9 43 9 70 -1
26 -10 38 -10 46 -2 17 17 -6 67 -43 98 -32 27 -41 29 -75 15z"/>
</g>
</svg>
